<svg xmlns="http://www.w3.org/2000/svg" viewBox="0 0 532.96 131.65"><defs><style>.cls-1{font-size:109.6px;fill:#ff5700;stroke:#ff5700;stroke-miterlimit:10;stroke-width:4px;font-family:ArialNarrow-BoldItalic, Arial Narrow;font-weight:700;font-style:italic;}.cls-2{fill:#c39;stroke:#c39;}.cls-3{fill:#07773c;}</style></defs><g id="Layer_2" data-name="Layer 2"><g id="Layer_1-2" data-name="Layer 1"><text class="cls-1" transform="translate(2.74 96.04) scale(0.75 1)">Analyse<tspan class="cls-2" x="383.07" y="0">This</tspan></text><path class="cls-3" d="M533,66.94q0,25.1,0,50.19c0,8.4-6,14.4-14.42,14.4H463.31a13.86,13.86,0,0,1-14.25-14.22q0-50.48,0-101A13.87,13.87,0,0,1,463.3,2.12q27.74,0,55.46,0A13.86,13.86,0,0,1,533,16.27Q533,41.6,533,66.94Zm-49.66,1.55c-4.11,0-7.86-.09-11.61,0a18.12,18.12,0,0,0-17.56,17.13c-.27,6.9-.27,13.82,0,20.71a18.1,18.1,0,0,0,17.95,17.23q19,.12,38,0a18.34,18.34,0,0,0,3.11-36.38,8.24,8.24,0,0,1-.85-.24l0-.26h15.75c0-.59,0-1,0-1.45a18.18,18.18,0,0,0-14-16.19,42.71,42.71,0,0,0-7.85-.57c-3.06-.09-6.13,0-9.15,0a12,12,0,0,0-.53,6.78c.24,1,.19,2,.35,2.94a5.85,5.85,0,0,0,.62,2.47,22.19,22.19,0,0,1,2.78,5.08c1,2.51,2.34,4.87,3.49,7.32.68,1.44.46,1.78-1.13,1.79-5.14,0-10.29.06-15.44,0-3.23,0-6.46-.12-9.69-.17-.85,0-1.37-.27-1-1.22,1.61-3.62,3.36-7.19,4.82-10.87,1.14-2.89,2.75-5.75,1.93-9.09a5.08,5.08,0,0,1,.07-.94C483.38,71.26,483.33,69.93,483.29,68.49Zm-13.6-40.08v.25l-.55.11A18.36,18.36,0,0,0,454,47.25c0,5.51,0,11,0,16.53,0,1,.22,1.45,1.38,1.45,8.82,0,17.65,0,26.47,0a8.05,8.05,0,0,0,.93-.08c.7-2.07-.55-3.38-1.36-4.84a6,6,0,0,1-.71-1.49c-.54-2.49-1-5-1.5-7.48-.41-2-.81-4-1.32-6-.32-1.27-1-2.46-1.22-3.74a6.49,6.49,0,0,1,.09-3.72,5.94,5.94,0,0,0,.56-2.37,16.94,16.94,0,0,1,.24-2.47,15.51,15.51,0,0,1,4.18-7.39c4.69-4.81,13.95-4.58,18.31.52A15.87,15.87,0,0,1,504,33.52a1.46,1.46,0,0,0,.2.37l1.27-.6a16.31,16.31,0,0,1,.34,4.11,54,54,0,0,1-1.72,6.05c0,.15,0,.32,0,.48-.26,1.23-.45,2.49-.82,3.69-.66,2.12-1.5,4.19-2.12,6.33-1,3.32-1.81,6.67-2.7,10-.1.37-.23.72-.36,1.16.39,0,.63.09.86.09,9.38,0,18.76,0,28.15,0,1,0,1.1-.38,1.1-1.21,0-5.35,0-10.7,0-16.05,0-.31-.06-.61-.1-1H512.15a2.83,2.83,0,0,1,1.24-.49,18.44,18.44,0,0,0,14.69-19.52c-.74-9.14-8.44-16.67-17.6-16.79q-19.39-.24-38.8,0a18.29,18.29,0,0,0-17.62,17c-.06,1,.22,1.31,1.23,1.3,4.35-.05,8.7,0,13,0Z"/><path class="cls-3" d="M508.57,112.89c-1.07,0-2,0-2.88,0a.81.81,0,0,1-.61-.41c-.28-1.39-1.35-1-2.19-1s-1.91-.45-2.19,1c0,.19-.46.42-.72.44-.83.05-1.66,0-2.67,0,.16-.53.25-.89.38-1.25,1-2.81,2.08-5.6,3.05-8.43a1.43,1.43,0,0,1,1.63-1.15c2.84.1,2.14-.36,3.07,2.12s1.79,4.86,2.67,7.3C508.26,111.89,508.38,112.3,508.57,112.89ZM503,105.48h-.26l-1,3.77h2.41Z"/><path class="cls-3" d="M498.92,102.09c-.52,2.42-.52,2.42-2.62,2.42h-2.08v2l1.51.06c.47,0,.94,0,1.41,0,0,2-.33,2.21-3,2.56,0,.94,0,1.92,0,2.9,0,.61-.22.87-.84.85-.79,0-1.58,0-2.45,0a8.74,8.74,0,0,1-.13-1c0-2.91,0-5.82,0-8.72,0-.83.24-1.13,1.08-1.11C494.13,102.12,496.47,102.09,498.92,102.09Z"/><path class="cls-3" d="M484.05,102.34a4.89,4.89,0,0,1-.52,1.38,1.89,1.89,0,0,1-1.11.75,28.2,28.2,0,0,1-3.07,0v2.1h3c-.33,2.23-.33,2.23-3.07,2.53,0,.87,0,1.77,0,2.66s-.2,1.14-1.07,1.12c-2.85-.07-2.32.3-2.35-2.33,0-2.47,0-4.94,0-7.42,0-.52-.07-1.08.73-1.07,2.36,0,4.71,0,7.06,0C483.75,102.13,483.88,102.25,484.05,102.34Z"/><path class="cls-3" d="M488.51,112.84h-3.35c0-.41-.09-.75-.09-1.1,0-2.87,0-5.74,0-8.61,0-.76.25-1.06,1-1,2.93.06,2.39-.3,2.42,2.38S488.51,110,488.51,112.84Z"/></g></g></svg>